<?xml version="1.0" standalone="no"?>
<!DOCTYPE svg PUBLIC "-//W3C//DTD SVG 20010904//EN"
 "http://www.w3.org/TR/2001/REC-SVG-20010904/DTD/svg10.dtd">
<svg version="1.0" xmlns="http://www.w3.org/2000/svg"
 width="512.000000pt" height="512.000000pt" viewBox="0 0 512.000000 512.000000"
 preserveAspectRatio="xMidYMid meet">

<g transform="translate(0.000000,512.000000) scale(0.100000,-0.100000)"
fill="#000000" stroke="none">
<path d="M2325 5109 c-474 -45 -925 -221 -1314 -512 -124 -92 -396 -364 -488
-488 -696 -932 -696 -2166 0 -3098 92 -124 364 -396 488 -488 932 -696 2166
-696 3098 0 124 92 396 364 488 488 696 932 696 2166 0 3098 -92 124 -364 396
-488 488 -520 388 -1158 571 -1784 512z m941 -2549 c134 -514 243 -936 244
-938 0 -1 -143 -1 -317 0 l-317 3 -7 30 c-4 17 -19 83 -34 148 l-27 117 -248
0 -248 0 -27 -117 c-15 -65 -30 -131 -34 -148 l-7 -30 -318 -3 c-299 -2 -317
-1 -312 15 3 10 111 428 241 928 130 501 238 916 240 923 4 10 102 12 467 10
l462 -3 242 -935z"/>
<path d="M2540 2914 c0 -8 -108 -472 -116 -496 -5 -17 6 -18 130 -18 111 0
136 3 136 14 0 8 -22 111 -49 228 -27 117 -52 228 -56 246 -5 23 -12 32 -26
32 -10 0 -19 -3 -19 -6z"/>
</g>
</svg>
